# xmcd
#
# Track frame offsets: 
#        180
#        11686
#        26869
#        38198
#        50809
#        62135
#        75986
#        91630
#        104098
#        115917
#        127100
#        139995
#        155476
#        166278
#        178438
#        190052
#        203441
#        216497
#        227693
#        241746
#
# Disc length: 3373 seconds
#
# Revision: 0
# Processed by: cddbd v1.5.2PL0 Copyright (c) Steve Scherf et al.
# Submitted via: ExactAudioCopy v0.95b4
#
DISCID=1c0d2b14
DTITLE=Various Artist - Graveyard Blues
DYEAR=2005
DGENRE=Blues
TTITLE0=Brownie Mc Ghee - Dealing With The Devil
TTITLE1=Muddy Waters - Country Blues
TTITLE2=Sammy Price - Frantic
TTITLE3=Sammy Price - Boogin' With 'Mezz'
TTITLE4=Lightnin' Hopkins - Can't Do Like You Used To
TTITLE5=Sonny Terry - All Alone Blues
TTITLE6=John Lee Hooker - Black Man Blues
TTITLE7=John Lee Hooker - Graveyard Blues
TTITLE8=T-Bone Walker - Dream Girl Blues
TTITLE9=Big Joe Turner - Story To Tell
TTITLE10=John Lee Hooker - Do My Baby Think Of Me
TTITLE11=John Lee Hooker - Questionnaire Blues
TTITLE12=Jimmy Witherspoon - I'm Just A Ladie's Man
TTITLE13=John Lee Hooker - High Priced Woman
TTITLE14=Willie Mae Thornton - You Did Me Wrong Boogie
TTITLE15=B. B. King - Three O'Clock Blues
TTITLE16=Sonny Therry And Brownie Mc Ghee - Lonesome Room
TTITLE17=John Lee Hooker - Blue Monday
TTITLE18=John Lee Hooker - Goin' South
TTITLE19=John Lee Hooker - Misbelieving Baby
EXTD=
EXTT0=
EXTT1=
EXTT2=
EXTT3=
EXTT4=
EXTT5=
EXTT6=
EXTT7=
EXTT8=
EXTT9=
EXTT10=
EXTT11=
EXTT12=
EXTT13=
EXTT14=
EXTT15=
EXTT16=
EXTT17=
EXTT18=
EXTT19=
PLAYORDER=
